<?xml version="1.0" standalone="no"?>
<!DOCTYPE svg PUBLIC "-//W3C//DTD SVG 20010904//EN"
 "http://www.w3.org/TR/2001/REC-SVG-20010904/DTD/svg10.dtd">
<svg version="1.0" xmlns="http://www.w3.org/2000/svg"
 width="256.000000pt" height="256.000000pt" viewBox="0 0 256.000000 256.000000"
 preserveAspectRatio="xMidYMid meet">

<g transform="translate(0.000000,256.000000) scale(0.100000,-0.100000)"
fill="#000000" stroke="none">
<path d="M180 2064 c0 -4 10 -15 23 -26 12 -11 126 -122 253 -248 l231 -229
259 254 259 254 -512 1 c-282 0 -513 -3 -513 -6z"/>
<path d="M1450 2055 c-270 -54 -485 -265 -557 -545 l-9 -35 -352 -3 -352 -2 0
-467 0 -467 32 30 c36 33 37 34 269 255 96 92 190 181 209 199 19 18 121 116
227 217 106 102 201 193 213 203 27 24 25 30 -10 30 -40 0 -39 15 6 107 50
105 146 201 246 247 136 64 250 69 395 21 40 -14 76 -25 78 -25 3 0 5 45 5 99
l0 99 -47 15 c-122 39 -234 46 -353 22z"/>
<path d="M1940 1750 l0 -180 170 0 170 0 0 180 0 180 -170 0 -170 0 0 -180z"/>
<path d="M2120 1473 c0 -5 7 -33 15 -63 8 -30 15 -95 15 -143 0 -156 -50 -278
-158 -385 -157 -157 -365 -197 -559 -107 l-72 33 -3 315 c-2 174 -6 319 -10
323 -7 7 -124 -97 -337 -300 -57 -54 -61 -61 -55 -90 21 -97 115 -248 208
-334 395 -360 997 -184 1157 338 27 90 33 281 11 368 l-14 52 -99 0 c-54 0
-99 -3 -99 -7z"/>
<path d="M839 993 c-2 -5 -114 -109 -248 -233 l-244 -225 227 -3 c124 -1 328
-1 453 0 l227 3 -69 45 c-131 85 -242 219 -300 364 -19 47 -39 67 -46 49z"/>
</g>
</svg>
